HIERARCHY
ROOT Hips
{
    OFFSET -0.1800 -22.3300 2.8200
    CHANNELS 6 Xposition Yposition Zposition Zrotation Yrotation Xrotation 
    JOINT LeftUpLeg
    {
        OFFSET -0.6800 6.9500 -9.1400
        CHANNELS 3 Zrotation Yrotation Xrotation
        JOINT LeftLeg
        {
            OFFSET -0.4500 3.4300 -37.5200
            CHANNELS 3 Zrotation Yrotation Xrotation
            JOINT LeftFoot
            {
                OFFSET -4.3700 -1.3600 -39.8000
                CHANNELS 3 Zrotation Yrotation Xrotation
                JOINT LeftToe
                {
                    OFFSET 11.9300 2.6400 -5.5800
                    CHANNELS 3 Zrotation Yrotation Xrotation
                    End Site
                    {
                        OFFSET 0.0000 0.0000 0.0000
                    }
                }
            }
        }
    }
    JOINT RightUpLeg
    {
        OFFSET -0.4300 -6.7700 -9.0500
        CHANNELS 3 Zrotation Yrotation Xrotation
        JOINT RightLeg
        {
            OFFSET -0.8900 -3.8300 -38.2600
            CHANNELS 3 Zrotation Yrotation Xrotation
            JOINT RightFoot
            {
                OFFSET -4.2300 1.5800 -39.8400
                CHANNELS 3 Zrotation Yrotation Xrotation
                JOINT RightToe
                {
                    OFFSET 12.3300 -2.5400 -4.8100
                    CHANNELS 3 Zrotation Yrotation Xrotation
                    End Site
                    {
                        OFFSET 0.0000 0.0000 0.0000
                    }
                }
            }
        }
    }
    JOINT Spine
    {
        OFFSET -2.6700 -0.2500 10.9000
        CHANNELS 3 Zrotation Yrotation Xrotation
        JOINT Spine1
        {
            OFFSET 0.1100 0.5500 13.5200
            CHANNELS 3 Zrotation Yrotation Xrotation
            JOINT Spine2
            {
                OFFSET 2.5400 0.1500 5.2900
                CHANNELS 3 Zrotation Yrotation Xrotation
                JOINT Neck
                {
                    OFFSET -4.2900 -0.2800 21.3900
                    CHANNELS 3 Zrotation Yrotation Xrotation
                    JOINT Head
                    {
                        OFFSET 5.1300 0.5200 6.5000
                        CHANNELS 3 Zrotation Yrotation Xrotation
                        End Site
                        {
                            OFFSET 0.0000 0.0000 0.0000
                        }
                    }
                }
                JOINT LeftShoulder
                {
                    OFFSET -3.4100 7.8800 12.1700
                    CHANNELS 3 Zrotation Yrotation Xrotation
                    JOINT LeftArm
                    {
                        OFFSET -0.8900 9.1000 3.0500
                        CHANNELS 3 Zrotation Yrotation Xrotation
                        JOINT LeftForeArm
                        {
                            OFFSET -2.7500 25.9600 -1.2800
                            CHANNELS 3 Zrotation Yrotation Xrotation
                            JOINT LeftHand
                            {
                                OFFSET -1.4900 8.4000 -0.8200
                                CHANNELS 3 Zrotation Yrotation Xrotation
                                End Site
                                {
                                    OFFSET 0.0000 0.0000 0.0000
                                }
                            }
                        }
                    }
                }
                JOINT RightShoulder
                {
                    OFFSET -3.8600 -8.1800 11.8800
                    CHANNELS 3 Zrotation Yrotation Xrotation
                    JOINT RightArm
                    {
                        OFFSET -0.9100 -9.6000 3.2600
                        CHANNELS 3 Zrotation Yrotation Xrotation
                        JOINT RightForeArm
                        {
                            OFFSET -2.1400 -25.3700 -1.3300
                            CHANNELS 3 Zrotation Yrotation Xrotation
                            JOINT RightHand
                            {
                                OFFSET -1.0300 -8.4600 -0.6100
                                CHANNELS 3 Zrotation Yrotation Xrotation
                                End Site
                                {
                                    OFFSET 0.0000 0.0000 0.0000
                                }
                            }
                        }
                    }
                }
            }
        }
    }
}
MOTION
Frames: 8
Frame Time: 0.016667
28.677305 28.938307 -33.859695 77.125320 -6.293441 7.323918 -24.338587 -64.005295 26.747864 -96.140717 76.840309 -127.928246 3.141813 -26.481602 14.127090 0.045348 -10.455511 3.714824 35.926178 -74.611389 -44.038128 173.567734 81.500084 -173.885178 -2.615051 -15.748520 -0.141846 -24.919664 -13.797379 -10.092341 -11.914459 53.315079 -12.895305 1.946703 -2.464696 0.228138 -1.997125 3.668985 -1.186851 -5.439049 -22.261326 -0.219743 -3.750320 11.324663 2.072662 -7.857734 3.723561 -17.464428 1.377186 9.475840 -34.880661 -42.936440 16.806108 7.348745 -2.892553 9.402853 12.897620 16.526237 3.118913 16.361469 12.793640 9.781047 48.007126 51.191090 23.309385 -4.761520 6.000824 12.157794 7.355670 
28.488371 28.729996 -34.029366 77.114128 -7.049709 6.985322 -20.142859 -63.518242 22.958672 -110.250336 78.398117 -141.680161 6.718532 -30.489948 12.547167 -4.251294 -9.321616 5.043930 31.945749 -74.399788 -40.117687 166.740295 80.217194 179.332611 -2.631853 -21.249723 -2.182839 -24.312592 -14.462210 -11.082089 -11.782103 51.304825 -12.459790 2.103496 -3.847347 0.428501 -2.423884 3.771580 -1.293906 -5.898787 -22.866625 0.373994 -2.497421 12.768501 2.219162 -7.182539 4.340714 -18.023046 2.312414 10.027637 -34.043060 -44.076248 19.096720 5.945585 -1.308370 11.165544 14.261702 16.063457 3.535846 17.775633 12.214580 11.170552 47.920925 53.989815 25.513577 -3.808794 6.556262 16.727322 9.131335 
28.283236 28.575083 -34.206219 77.123589 -8.146667 6.557122 -20.142859 -63.518242 22.958672 -110.250336 78.398117 -141.680161 6.718532 -30.489948 12.547167 -4.251294 -9.321616 5.043930 31.945749 -74.399788 -40.117687 166.740295 80.217194 179.332611 -2.631853 -21.249723 -2.182839 -24.312592 -14.462210 -11.082089 -11.782103 51.304825 -12.459790 2.103496 -3.847347 0.428501 -2.423884 3.771580 -1.293906 -5.898787 -22.866625 0.373994 -2.497421 12.768501 2.219162 -7.182539 4.340714 -18.023046 2.312414 10.027637 -34.043060 -44.076248 19.096720 5.945585 -1.308370 11.165544 14.261702 16.063457 3.535846 17.775633 12.214580 11.170552 47.920925 53.989815 25.513577 -3.808794 6.556262 16.727322 9.131335 
28.077969 28.411364 -34.289753 76.803917 -9.273826 6.324269 -20.377314 -62.253429 22.067421 -114.357849 78.541168 -144.928299 8.311325 -28.976875 11.914893 -4.831731 -6.898499 4.951532 25.369919 -73.100830 -33.223122 163.568909 80.247467 175.952454 -3.025264 -21.395029 -4.518481 -22.754091 -9.642614 -10.597398 -11.515834 49.956333 -11.811221 1.932056 -5.446572 0.627565 -2.522077 3.886779 -1.346041 -4.458957 -22.846693 0.136250 -2.001434 13.564356 2.164949 -5.426692 4.740406 -17.928028 3.223930 10.926523 -34.218616 -47.374653 21.396255 5.479111 -1.422474 11.940773 15.734751 14.808484 4.292388 18.077938 12.071136 12.888936 48.401188 58.499722 28.055189 -2.704725 7.529178 16.375223 10.167230 
27.864595 28.210867 -34.294163 76.181053 -10.460186 6.162409 -20.377314 -62.253429 22.067421 -114.357849 78.541168 -144.928299 8.311325 -28.976875 11.914893 -4.831731 -6.898499 4.951532 25.369919 -73.100830 -33.223122 163.568909 80.247467 175.952454 -3.025264 -21.395029 -4.518481 -22.754091 -9.642614 -10.597398 -11.515834 49.956333 -11.811221 1.932056 -5.446572 0.627565 -2.522077 3.886779 -1.346041 -4.458957 -22.846693 0.136250 -2.001434 13.564356 2.164949 -5.426692 4.740406 -17.928028 3.223930 10.926523 -34.218616 -47.374653 21.396255 5.479111 -1.422474 11.940773 15.734751 14.808484 4.292388 18.077938 12.071136 12.888936 48.401188 58.499722 28.055189 -2.704725 7.529178 16.375223 10.167230 
27.680208 28.026367 -34.422665 75.667679 -11.466928 6.004829 -18.468348 -60.385986 20.177179 -119.469673 79.126411 -149.538208 9.806048 -28.864927 11.103586 -6.530231 -4.878385 4.242326 21.697033 -70.912567 -29.017384 161.490158 80.878899 174.385498 -2.471758 -20.686071 -7.031891 -24.033386 -7.183234 -7.882139 -11.091782 48.569748 -11.426472 2.076479 -6.984025 0.198487 -2.576766 3.975099 -1.502856 -3.434173 -22.535461 0.309771 -0.797551 14.596281 2.120343 -3.941708 5.389305 -18.041553 4.069170 10.927657 -34.056095 -50.337772 23.726501 5.107195 -0.747927 12.641814 15.581524 13.892619 5.244518 18.663845 12.246305 13.702473 49.018661 61.388706 30.247583 -2.121934 8.449031 20.402822 11.392747 
27.530149 27.794693 -34.592590 75.547981 -11.640548 5.877288 -18.468348 -60.385986 20.177179 -119.469673 79.126411 -149.538208 9.806048 -28.864927 11.103586 -6.530231 -4.878385 4.242326 21.697033 -70.912567 -29.017384 161.490158 80.878899 174.385498 -2.471758 -20.686071 -7.031891 -24.033386 -7.183234 -7.882139 -11.091782 48.569748 -11.426472 2.076479 -6.984025 0.198487 -2.576766 3.975099 -1.502856 -3.434173 -22.535461 0.309771 -0.797551 14.596281 2.120343 -3.941708 5.389305 -18.041553 4.069170 10.927657 -34.056095 -50.337772 23.726501 5.107195 -0.747927 12.641814 15.581524 13.892619 5.244518 18.663845 12.246305 13.702473 49.018661 61.388706 30.247583 -2.121934 8.449031 20.402822 11.392747 
27.341366 27.534584 -34.795170 75.705940 -11.792537 5.592890 -17.091146 -61.711037 18.880163 -137.692139 77.642899 -166.961609 15.368029 -40.238941 5.623941 -12.357129 -2.754160 2.968907 18.703773 -72.390198 -26.700018 156.265884 78.537552 168.633041 -0.701866 -30.490894 -8.647050 -23.085295 -6.700506 -9.788333 -11.514115 46.376183 -11.800383 2.571697 -10.203155 0.332475 -3.205193 3.727449 -1.348826 -3.163151 -24.243557 0.737853 1.008674 15.919432 2.637385 -2.834008 5.755441 -19.642561 4.311213 12.050151 -31.118862 -50.124393 24.751493 2.978969 1.216910 21.448841 20.764427 12.704335 5.353926 22.205801 11.473763 16.763029 46.874542 63.536957 30.632977 0.408598 10.752917 27.058748 11.439034 
